<?xml version="1.0" encoding="UTF-8"?>
<svg width="450px" height="544px" viewBox="0 0 450 544" version="1.1" xmlns="http://www.w3.org/2000/svg" xmlns:xlink="http://www.w3.org/1999/xlink">
    <!-- Generator: Sketch 58 (84663) - https://sketch.com -->
    <title>Artboard</title>
    <desc>Created with Sketch.</desc>
    <defs>
        <linearGradient x1="8.12572844%" y1="22.7257087%" x2="77.4862049%" y2="100%" id="linearGradient-1">
            <stop stop-color="#9A9898" offset="0%"></stop>
            <stop stop-color="#888888" offset="100%"></stop>
        </linearGradient>
    </defs>
    <g stroke="none" stroke-width="1" fill="none" fill-rule="evenodd">
        <g transform="translate(54.000000, 0.000000)" stroke="#DBDBDB">
            <path d="M0.5,0 L0.5,540" stroke-width="10"></path>
            <path d="M60.5,0 L60.5,540" stroke-width="10"></path>
            <polyline stroke-width="8" points="0.5 0 60.5 60 0.5 120 60.5 180 0.5 240 60.5 300 0.5 360 60.5 420 0.5 480 60.5 540"></polyline>
        </g>
        <g transform="translate(375.500000, 270.000000) scale(-1, 1) translate(-375.500000, -270.000000) translate(345.000000, 0.000000)" stroke="#DBDBDB">
            <path d="M0.5,0 L0.5,540" stroke-width="10"></path>
            <path d="M60.5,0 L60.5,540" stroke-width="10"></path>
            <polyline stroke-width="8" points="0.5 0 60.5 60 0.5 120 60.5 180 0.5 240 60.5 300 0.5 360 60.5 420 0.5 480 60.5 540"></polyline>
        </g>
        <path d="M229.25,120 L229.75,0" stroke="#888888" stroke-width="10"></path>
        <g transform="translate(144.000000, 115.000000)">
            <path d="M59.7552092,108.970373 L60.5783357,108.475257 C87.5601941,91.9402554 97.1243591,66.9632751 81.2029719,38.767351 C65.2815848,10.5714269 29.84346,-10.2729904 2.34730664,5.35122214 L1.51637783,5.8325206 L8.70297194,18.267351 C32.0946604,62.4291003 45.761327,89.2624336 49.7029719,98.767351 L45.2029719,110.767351 L51.9612466,113.57127 L59.7552092,108.970373 L60.5783357,108.475257 L59.7552092,108.970373 Z" fill="#5D5D5D" transform="translate(45.222671, 56.785635) scale(-1, 1) translate(-45.222671, -56.785635) "></path>
            <path d="M58.2388314,106.472358 L59.0619579,105.988385 C86.0438163,89.8254952 97.6079812,65.8287399 81.6865941,38.267351 C65.765207,10.7059621 28.3270821,-10.0874925 0.830928808,5.18510499 L-1.20792265e-13,5.65557207 L53.7007406,98.6165048 L50.4448687,110.969714 L58.2388314,106.472358 L59.0619579,105.988385 L58.2388314,106.472358 Z" fill="url(#linearGradient-1)" transform="translate(44.464482, 55.491280) scale(-1, 1) translate(-44.464482, -55.491280) "></path>
        </g>
        <g transform="translate(270.500000, 172.000000) scale(-1, 1) translate(-270.500000, -172.000000) translate(226.000000, 115.000000)">
            <path d="M59.7552092,108.970373 L60.5783357,108.475257 C87.5601941,91.9402554 97.1243591,66.9632751 81.2029719,38.767351 C65.2815848,10.5714269 29.84346,-10.2729904 2.34730664,5.35122214 L1.51637783,5.8325206 L8.70297194,18.267351 C32.0946604,62.4291003 45.761327,89.2624336 49.7029719,98.767351 L45.2029719,110.767351 L51.9612466,113.57127 L59.7552092,108.970373 L60.5783357,108.475257 L59.7552092,108.970373 Z" fill="#5D5D5D" transform="translate(45.222671, 56.785635) scale(-1, 1) translate(-45.222671, -56.785635) "></path>
            <path d="M58.2388314,106.472358 L59.0619579,105.988385 C86.0438163,89.8254952 97.6079812,65.8287399 81.6865941,38.267351 C65.765207,10.7059621 28.3270821,-10.0874925 0.830928808,5.18510499 L-1.20792265e-13,5.65557207 L53.7007406,98.6165048 L50.4448687,110.969714 L58.2388314,106.472358 L59.0619579,105.988385 L58.2388314,106.472358 Z" fill="url(#linearGradient-1)" transform="translate(44.464482, 55.491280) scale(-1, 1) translate(-44.464482, -55.491280) "></path>
        </g>
        <circle fill="#5F5656" cx="229.5" cy="121.5" r="15.5"></circle>
        <circle fill="#ABABAB" cx="229.5" cy="119.5" r="15.5"></circle>
        <circle fill="#888888" cx="230" cy="120" r="15"></circle>
        <rect fill="#D8D8D8" x="0" y="514" width="450" height="30"></rect>
    </g>
</svg>