<?xml version="1.0" encoding="UTF-8"?>
<svg viewBox="0 0 522 198" stroke="none" version="1.1" xmlns="http://www.w3.org/2000/svg" xmlns:xlink="http://www.w3.org/1999/xlink">
    <path d="M71.5,151 C84.4786916,151 95,161.521308 95,174.5 C95,187.478692 84.4786916,198 71.5,198 C58.5213084,198 48,187.478692 48,174.5 C48,161.521308 58.5213084,151 71.5,151 Z M136.5,151 C149.478692,151 160,161.521308 160,174.5 C160,187.478692 149.478692,198 136.5,198 C123.521308,198 113,187.478692 113,174.5 C113,161.521308 123.521308,151 136.5,151 Z" fill="#939393"/>
    <path d="M137,161 C144.224793,161.272724 150,167.211926 150,174.5 C150,181.955844 143.955844,188 136.5,188 C130.255045,188 125.000474,183.75966 123.458425,178.001117 L84.5415755,178.001117 C82.9995256,183.75966 77.744955,188 71.5,188 C64.0441559,188 58,181.955844 58,174.5 C58,167.21159 63.7757403,161.272176 70.999887,161.009092 L71,161 L136.5,161 L137,161 Z" fill="#676565"/>
    <path d="M158.77779,166.999988 L49.22221,166.999988 C49.5702895,165.965662 49.9883828,164.963516 50.4708555,163.999182 L157.529144,163.999182 C158.011617,164.963516 158.429711,165.965662 158.77779,166.999988 Z" fill="#000000" opacity="0.200000003"/>
    <path d="M386.5,151 C399.478692,151 410,161.521308 410,174.5 C410,187.478692 399.478692,198 386.5,198 C373.521308,198 363,187.478692 363,174.5 C363,161.521308 373.521308,151 386.5,151 Z M451.5,151 C464.478692,151 475,161.521308 475,174.5 C475,187.478692 464.478692,198 451.5,198 C438.521308,198 428,187.478692 428,174.5 C428,161.521308 438.521308,151 451.5,151 Z" fill="#939393"/>
    <path d="M452,161 C459.224793,161.272724 465,167.211926 465,174.5 C465,181.955844 458.955844,188 451.5,188 C445.255045,188 440.000474,183.75966 438.458425,178.001117 L399.541575,178.001117 C397.999526,183.75966 392.744955,188 386.5,188 C379.044156,188 373,181.955844 373,174.5 C373,167.21159 378.77574,161.272176 385.999887,161.009092 L386,161 L451.5,161 L452,161 Z" fill="#676565"/>
    <path d="M473.77779,166.999988 L364.22221,166.999988 C364.570289,165.965662 364.988383,164.963516 365.470856,163.999182 L472.529144,163.999182 C473.011617,164.963516 473.429711,165.965662 473.77779,166.999988 Z" fill="#000000" opacity="0.200000003"/>
    <rect  x="30" y="0" width="462" height="154"/>
    <path d="M102,18 L102,148 L48,148 L48,18 L102,18 Z M164,18 L164,148 L110,148 L110,18 L164,18 Z M226,18 L226,148 L172,148 L172,18 L226,18 Z M288,18 L288,148 L234,148 L234,18 L288,18 Z M350,18 L350,148 L296,148 L296,18 L350,18 Z M412,18 L412,148 L358,148 L358,18 L412,18 Z M474,18 L474,148 L420,148 L420,18 L474,18 Z" fill="#FFFFFF" opacity="0.2"/>
    <path d="M102,148 L102,154 L48,154 L48,148 L102,148 Z M164,148 L164,154 L110,154 L110,148 L164,148 Z M226,148 L226,154 L172,154 L172,148 L226,148 Z M288,148 L288,154 L234,154 L234,148 L288,148 Z M350,148 L350,154 L296,154 L296,148 L350,148 Z M412,148 L412,154 L358,154 L358,148 L412,148 Z M474,148 L474,154 L420,154 L420,148 L474,148 Z" fill="#000000" opacity="0.1" transform="translate(261.000000, 151.000000) scale(1, -1) translate(-261.000000, -151.000000) "/>
    <path d="M474,130 L474,136 L420,136 L420,130 L474,130 Z M412,130 L412,136 L358,136 L358,130 L412,130 Z M350,130 L350,136 L296,136 L296,130 L350,130 Z M288,130 L288,136 L234,136 L234,130 L288,130 Z M226,130 L226,136 L172,136 L172,130 L226,130 Z M164,130 L164,136 L110,136 L110,130 L164,130 Z M102,130 L102,136 L48,136 L48,130 L102,130 Z M474,110 L474,116 L420,116 L420,110 L474,110 Z M412,110 L412,116 L358,116 L358,110 L412,110 Z M350,110 L350,116 L296,116 L296,110 L350,110 Z M288,110 L288,116 L234,116 L234,110 L288,110 Z M226,110 L226,116 L172,116 L172,110 L226,110 Z M164,110 L164,116 L110,116 L110,110 L164,110 Z M102,110 L102,116 L48,116 L48,110 L102,110 Z M474,90 L474,96 L420,96 L420,90 L474,90 Z M412,90 L412,96 L358,96 L358,90 L412,90 Z M350,90 L350,96 L296,96 L296,90 L350,90 Z M288,90 L288,96 L234,96 L234,90 L288,90 Z M226,90 L226,96 L172,96 L172,90 L226,90 Z M164,90 L164,96 L110,96 L110,90 L164,90 Z M102,90 L102,96 L48,96 L48,90 L102,90 Z M164,70 L164,76 L110,76 L110,70 L164,70 Z M226,70 L226,76 L172,76 L172,70 L226,70 Z M288,70 L288,76 L234,76 L234,70 L288,70 Z M350,70 L350,76 L296,76 L296,70 L350,70 Z M412,70 L412,76 L358,76 L358,70 L412,70 Z M474,70 L474,76 L420,76 L420,70 L474,70 Z M102,70 L102,76 L48,76 L48,70 L102,70 Z M412,50 L412,56 L358,56 L358,50 L412,50 Z M288,50 L288,56 L234,56 L234,50 L288,50 Z M474,50 L474,56 L420,56 L420,50 L474,50 Z M350,50 L350,56 L296,56 L296,50 L350,50 Z M226,50 L226,56 L172,56 L172,50 L226,50 Z M164,50 L164,56 L110,56 L110,50 L164,50 Z M102,50 L102,56 L48,56 L48,50 L102,50 Z M164,30 L164,36 L110,36 L110,30 L164,30 Z M226,30 L226,36 L172,36 L172,30 L226,30 Z M288,30 L288,36 L234,36 L234,30 L288,30 Z M350,30 L350,36 L296,36 L296,30 L350,30 Z M412,30 L412,36 L358,36 L358,30 L412,30 Z M474,30 L474,36 L420,36 L420,30 L474,30 Z M102,30 L102,36 L48,36 L48,30 L102,30 Z" fill="#FFFFFF" opacity="0.1"/>
    <rect fill="#858585" x="9" y="154" width="504" height="10"/>
    <rect fill="#858585" x="503" y="151" width="19" height="16" rx="2"/>
    <rect fill="#858585" x="0" y="151" width="19" height="16" rx="2"/>
</svg>
